<svg version="1.1" viewBox="0.0 0.0 512.0 512.0" fill="none" stroke="none" stroke-linecap="square" stroke-miterlimit="10" xmlns:xlink="http://www.w3.org/1999/xlink" xmlns="http://www.w3.org/2000/svg"><clipPath id="p.0"><path d="m0 0l512.0 0l0 512.0l-512.0 0l0 -512.0z" clip-rule="nonzero"/></clipPath><g clip-path="url(#p.0)"><path fill="#000000" fill-opacity="0.0" d="m0 0l512.0 0l0 512.0l-512.0 0z" fill-rule="evenodd"/><defs><radialGradient id="p.1" gradientUnits="userSpaceOnUse" gradientTransform="matrix(19.00945919909335 0.0 0.0 19.00945919909335 0.0 0.0)" spreadMethod="pad" cx="13.453724738695396" cy="13.429700230233442" fx="13.453724738695396" fy="13.429700230233442" r="19.009458541870117"><stop offset="0.0" stop-color="#6d9eeb"/><stop offset="0.52" stop-color="#3c78d8"/><stop offset="0.99999994" stop-color="#3c78d8" stop-opacity="0.0"/><stop offset="1.0" stop-color="#ffffff" stop-opacity="0.0"/></radialGradient></defs><path fill="url(#p.1)" d="m0 255.29134l0 0c0 -140.9935 114.5023 -255.29134 255.74803 -255.29134l0 0c67.8286 0 132.8791 26.896688 180.84117 74.7731c47.962067 47.87641 74.90686 112.81076 74.90686 180.51823l0 0c0 140.99352 -114.50229 255.29134 -255.74803 255.29134l0 0c-141.24573 0 -255.74803 -114.29782 -255.74803 -255.29134z" fill-rule="evenodd"/><path stroke="#666666" stroke-width="1.0" stroke-linejoin="round" stroke-linecap="butt" d="m0 255.29134l0 0c0 -140.9935 114.5023 -255.29134 255.74803 -255.29134l0 0c67.8286 0 132.8791 26.896688 180.84117 74.7731c47.962067 47.87641 74.90686 112.81076 74.90686 180.51823l0 0c0 140.99352 -114.50229 255.29134 -255.74803 255.29134l0 0c-141.24573 0 -255.74803 -114.29782 -255.74803 -255.29134z" fill-rule="evenodd"/><path fill="#a4d9f3" d="m471.12338 120.92826l-215.37009 389.74805l-215.37007 -389.65356z" fill-rule="evenodd"/><path fill="#deedf3" d="m133.52911 246.52437l0 0c0 -65.07393 54.17708 -117.82677 121.00787 -117.82677l0 0c32.093292 0 62.8721 12.413849 85.56549 34.510666c22.69339 22.096802 35.442383 52.066498 35.442383 83.3161l0 0c0 65.07393 -54.177063 117.82677 -121.00787 117.82677l0 0c-66.830795 0 -121.00787 -52.75284 -121.00787 -117.82677z" fill-rule="evenodd"/></g></svg>